<svg xmlns="http://www.w3.org/2000/svg" viewBox="0 0 166.647 166.596"><g data-name="Layer 2"><g data-name="ART"><circle cx="83.324" cy="83.272" r="81.794" fill="#357fc1"/><path d="M32.782 18.941c.193-.151.384-.306.579-.456-.195.15-.386.305-.58.456zM31.19 20.225c.216-.178.43-.36.647-.535-.217.176-.431.357-.647.535zM28.2 22.823c.223-.203.444-.406.668-.606-.224.2-.445.403-.667.606zM26.761 24.17c.22-.212.44-.423.661-.63-.221.207-.44.418-.66.63zM29.674 21.51c.222-.192.442-.387.666-.577-.224.19-.444.385-.666.577zM156.964 118.875q-.336.692-.686 1.38.35-.688.686-1.38zM26.005 24.902zM158.192 116.228q.411-.931.797-1.868-.386.937-.797 1.868z" fill="#357fc1"/><path d="M22.973 58.86a78.304 78.304 0 00137.715 51.012A81.82 81.82 0 0034.882 17.34a77.935 77.935 0 00-11.909 41.52z" fill="#4495d7"/><path d="M159.058 114.196q.88-2.147 1.63-4.324-.75 2.176-1.63 4.324zM157.267 118.245q.36-.759.702-1.522-.343.763-.702 1.522zM23.252 27.745q-.312.339-.622.682.31-.343.622-.682zM16.383 36.27c.158-.226.321-.448.481-.672-.16.224-.323.446-.481.673zM130.113 150.387q-2.452 1.708-5.01 3.224 2.556-1.515 5.01-3.224zM152.525 126.878a81.765 81.765 0 01-16.079 18.618 81.765 81.765 0 0016.079-18.618q.61-.967 1.186-1.945-.579.977-1.186 1.945zM133.332 148.026q-1.583 1.223-3.219 2.361 1.635-1.138 3.22-2.361zM15.233 37.953c.133-.2.27-.396.405-.594-.134.198-.272.394-.405.594zM154.056 124.336zM24.614 26.304q-.32.33-.637.666.317-.335.637-.666zM155.218 122.27q.36-.663.709-1.329c-.231.445-.469.887-.709 1.329zM39.718 152.473A81.794 81.794 0 0114.123 39.667c.02-.03.04-.06.058-.09l-.058.09a81.808 81.808 0 0069.763 125.407 81.41 81.41 0 01-44.168-12.6zM21.317 29.92q.299-.348.601-.691-.302.343-.6.69zM18.782 33.022c.185-.238.372-.472.56-.708-.188.236-.375.47-.56.708zM17.566 34.628c.174-.236.351-.468.528-.702-.177.234-.354.466-.528.702zM20.033 31.452z" fill="#357fc1"/><path d="M114.214 20.483l8.203.316s3.682-1.796 8.403-4.114q-1.898-1.352-3.89-2.613A81.806 81.806 0 0021.194 136.504c-.657-106.822 93.02-116.021 93.02-116.021z" fill="#df642f"/><path d="M126.67 28.331l-3.826-7.263s.03-4.097.085-9.356q2.038 1.129 4.036 2.382a81.806 81.806 0 01-64.811 148.219c96.645-45.509 64.515-133.982 64.515-133.982z" fill="#b5c933"/><path d="M126.965 14.094q-1.996-1.258-4.036-2.382c-.054 5.26-.086 9.356-.086 9.356l3.826 7.263s22.49 61.933-26.768 108.818c.459.008.917.018 1.378.018a78.126 78.126 0 0059.409-27.295 81.908 81.908 0 01-90.503 54.152 81.796 81.796 0 0056.78-149.93zM62.17 162.305l-.016.008c.513.137 1.028.254 1.543.381a81.46 81.46 0 01-1.527-.39z" fill="#cedd3e"/><path d="M63.522 163.396l-.546-.133c-.336-.081-.673-.162-1.01-.253l-1.838-.492 1.947-.974.281.063c.504.134 1.01.261 1.514.386h.001z" fill="#3e4147"/><path d="M69.976 163.99q-2.815-.464-5.609-1.13 2.793.667 5.609 1.13z" fill="#cedd3e"/><path d="M69.86 164.702a78.48 78.48 0 01-2.886-.53 78.688 78.688 0 01-2.775-.61l.336-1.406v.001l.007.001a78.468 78.468 0 005.55 1.118h.002z" fill="#3e4147"/><path d="M20.03 31.456c.195-.24.393-.476.59-.712-.197.236-.395.473-.59.712z" fill="#f3783c"/><path d="M20.59 31.913L19.47 31q.296-.362.597-.719l1.108.928c-.197.234-.392.468-.585.705z" fill="#3e4147"/><path d="M5.501 58.044c.053-.162.108-.323.162-.484-.054.161-.11.322-.162.484z" fill="#f3783c"/><path fill="#3e4147" d="M6.187 58.268l-1.373-.448.163-.489 1.372.457-.162.48z"/><path d="M1.525 83.12l-.002.421.002-.421z" fill="#f3783c"/><path fill="#3e4147" d="M.801 83.546l.002-.426h1.445l-.002.416-1.445.01z"/><path d="M18.78 33.024c.187-.24.378-.478.567-.716-.19.238-.38.475-.567.716z" fill="#f3783c"/><path fill="#3e4147" d="M19.35 33.468l-1.14-.887.571-.723 1.131.899-.562.711z"/><path d="M17.563 34.631c.178-.24.359-.477.539-.716-.18.239-.361.476-.54.716z" fill="#f3783c"/><path fill="#3e4147" d="M18.142 35.063l-1.16-.864.542-.718 1.155.869-.537.713z"/><path d="M16.38 36.274c.164-.233.332-.462.497-.693-.165.23-.333.46-.496.693z" fill="#f3783c"/><path fill="#3e4147" d="M16.973 36.689l-1.184-.831.501-.698 1.174.842-.491.687z"/><path d="M6.552 55.02l.13-.36-.13.36z" fill="#f3783c"/><path fill="#3e4147" d="M7.228 55.274l-1.353-.506.131-.361 1.353.506-.131.361z"/><path d="M7.75 51.966q.124-.299.251-.596-.126.297-.25.596z" fill="#f3783c"/><path fill="#3e4147" d="M8.418 52.244l-1.335-.553.252-.602 1.332.56-.249.595z"/><path d="M10.565 45.909c.084-.163.165-.327.25-.49-.085.163-.166.327-.25.49z" fill="#f3783c"/><path fill="#3e4147" d="M11.207 46.238l-1.285-.658.253-.495 1.281.668-.249.485z"/><path d="M9.19 48.696c.05-.107.104-.213.154-.32-.05.107-.104.213-.154.32z" fill="#f3783c"/><path fill="#3e4147" d="M9.846 49l-1.311-.607.157-.328 1.305.623-.151.312z"/><path d="M12.226 42.84l.318-.55-.318.55z" fill="#f3783c"/><path fill="#3e4147" d="M12.854 43.197l-1.255-.714.321-.556 1.248.728-.314.542z"/><path d="M15.232 37.955c.138-.208.28-.412.42-.618-.14.206-.282.41-.42.618z" fill="#f3783c"/><path fill="#3e4147" d="M15.835 38.354l-1.205-.797.425-.625 1.195.81-.415.612z"/><path d="M31.177 20.236c.221-.183.44-.368.663-.549-.223.18-.442.366-.663.549z" fill="#f3783c"/><path fill="#3e4147" d="M31.636 20.793l-.918-1.115.668-.553.908 1.125-.658.543z"/><path d="M32.756 18.962c.203-.16.403-.322.607-.479-.204.157-.404.32-.607.479z" fill="#f3783c"/><path fill="#3e4147" d="M33.204 19.529l-.895-1.134.611-.483.885 1.143-.601.474z"/><path d="M22.973 58.86a78.066 78.066 0 005.752 29.496c22.135-61.637 85.49-67.873 85.49-67.873l8.202.316s3.682-1.796 8.403-4.114q-1.898-1.352-3.89-2.613a81.822 81.822 0 00-92.048 3.268 77.933 77.933 0 00-11.909 41.52zM29.669 21.515c.224-.195.446-.39.672-.583-.226.192-.448.388-.672.583z" fill="#f3783c"/><path fill="#3e4147" d="M30.142 22.06l-.947-1.09.678-.588.935 1.101-.666.577z"/><path d="M26.007 24.899q-.331.326-.658.657c.219-.22.437-.44.658-.657z" fill="#f3783c"/><path d="M25.862 26.065l-1.025-1.018a61 61 0 01.666-.664l1.01 1.033c-.22.214-.435.43-.65.649z" fill="#3e4147"/><path d="M28.194 22.83c.225-.206.449-.412.675-.615-.226.203-.45.41-.675.614z" fill="#f3783c"/><path fill="#3e4147" d="M28.68 23.363l-.973-1.068.68-.618.964 1.076-.671.61z"/><path d="M24.617 26.301q-.323.334-.643.672.32-.338.643-.672z" fill="#f3783c"/><path d="M24.498 27.47l-1.049-.993q.324-.342.65-.68l1.037 1.007q-.321.33-.638.667z" fill="#3e4147"/><path d="M21.314 29.923q.302-.352.609-.7-.306.349-.61.7z" fill="#f3783c"/><path d="M21.86 30.395l-1.094-.944q.307-.354.615-.705l1.084.955q-.303.345-.605.694z" fill="#3e4147"/><path d="M14.123 39.667l.114-.177c-.037.06-.076.117-.114.177l-.011.018z" fill="#f3783c"/><path fill="#3e4147" d="M14.724 40.067l-1.209-.789.109-.17 1.226.763-.126.196z"/><path d="M26.755 24.175c.223-.214.446-.428.67-.639-.224.211-.447.425-.67.64z" fill="#f3783c"/><path fill="#3e4147" d="M27.254 24.697l-.998-1.045.676-.642.988 1.053-.666.634z"/><path d="M23.256 27.742q-.316.342-.629.688.313-.346.629-.688z" fill="#f3783c"/><path d="M23.165 28.913l-1.074-.965q.315-.351.635-.697l1.059.982q-.312.337-.62.68z" fill="#3e4147"/><path d="M2.077 92.692c.02.163.037.325.057.487-.02-.162-.038-.325-.057-.487z" fill="#f3783c"/><path fill="#3e4147" d="M1.417 93.265l-.057-.487 1.434-.171.056.486-1.433.172z"/><path d="M3.098 99.195l.024.129-.024-.129z" fill="#f3783c"/><path fill="#3e4147" d="M2.414 99.469l-.024-.129 1.416-.289.014.08-1.406.338z"/><path d="M2.527 95.984c.023.148.049.295.073.443-.024-.148-.05-.295-.073-.443z" fill="#f3783c"/><path fill="#3e4147" d="M1.886 96.54l-.074-.442 1.428-.227.073.443-1.427.226z"/><path d="M4.506 61.355c.054-.194.107-.389.163-.583-.056.194-.11.389-.163.583z" fill="#f3783c"/><path fill="#3e4147" d="M5.202 61.547l-1.393-.385.165-.59 1.389.399-.161.576z"/><path d="M3.745 102.152q.057.245.117.489-.06-.244-.117-.49z" fill="#f3783c"/><path fill="#3e4147" d="M3.161 102.813l-.119-.497 1.406-.329.115.482-1.402.344z"/><path d="M4.588 105.42l.078.27-.078-.27z" fill="#f3783c"/><path fill="#3e4147" d="M3.974 105.892l-.082-.279 1.391-.388.077.264-1.386.403z"/><path d="M1.586 86.368l.024.54-.024-.54z" fill="#f3783c"/><path fill="#3e4147" d="M.864 86.4l1.444-.063.023.54-1.444.063z"/><path d="M17.2 131.447c-.048-.065-.095-.132-.142-.198.047.066.094.133.142.198z" fill="#f3783c"/><path fill="#3e4147" d="M16.621 131.879l-.103-.142 1.125-.91.136.189-1.158.863z"/><path d="M19.272 134.167l-.28-.353.28.353z" fill="#f3783c"/><path fill="#3e4147" d="M18.707 134.616l-.28-.353 1.131-.899.28.354-1.131.898z"/><path d="M5.473 108.35l.095.303-.095-.302z" fill="#f3783c"/><path fill="#3e4147" d="M4.881 108.874l-.094-.297 1.371-.453.098.309-1.375.441z"/><path fill="#f3783c" d="M21.194 136.502l.001.002-.001-.002z"/><path fill="#3e4147" d="M20.683 137.013l.509-.509h-.719.719l.513-.513.212.212.001.301h-.723l-.512.509z"/><path d="M15.403 128.873c-.048-.07-.097-.14-.144-.211l.144.211z" fill="#f3783c"/><path fill="#3e4147" d="M14.802 129.274l-.091-.133.548-.479.597-.406.147.217-1.201.801z"/><path d="M1.787 89.795l.003.039z" fill="#f3783c"/><path fill="#3e4147" d="M1.069 89.886l1.439-.147.003.043-1.442.104z"/><path d="M2.458 70.89c.026-.168.05-.338.077-.507-.027.17-.051.339-.077.508z" fill="#f3783c"/><path fill="#3e4147" d="M3.173 70.998l-1.43-.215.079-.515 1.426.23-.075.5z"/><path d="M2.059 73.838c.01-.089.023-.177.033-.266-.01.089-.023.177-.033.266z" fill="#f3783c"/><path fill="#3e4147" d="M2.775 73.925l-1.433-.174.032-.258 1.435.158-.034.274z"/><path d="M6.511 111.376q.081.222.164.442l-.164-.442z" fill="#f3783c"/><path fill="#3e4147" d="M5.997 112.069l-.165-.447 1.358-.493.162.438-1.355.502z"/><path d="M1.74 77.262l.045-.58-.045.58z" fill="#f3783c"/><path fill="#3e4147" d="M1.02 77.207l.044-.581 1.441.11-.044.58z"/><path d="M3.027 67.603c.037-.189.076-.377.114-.565-.038.188-.077.376-.114.565z" fill="#f3783c"/><path fill="#3e4147" d="M3.736 67.742l-1.418-.279.115-.568 1.416.287-.113.56z"/><path d="M3.754 64.24l.014-.066-.014.066z" fill="#f3783c"/><path fill="#3e4147" d="M4.474 64.327l-.72-.088-.692-.218 1.412.306z"/><path d="M1.57 80.438c.005-.115.006-.23.01-.344-.004.115-.005.23-.01.344z" fill="#f3783c"/><path fill="#3e4147" d="M1.571 80.438l-.72-.103.008-.271 1.444.062-.007.243-.725.069z"/><path d="M8.926 117.267c.056.125.111.249.169.373-.058-.124-.113-.248-.17-.373z" fill="#f3783c"/><path fill="#3e4147" d="M8.439 117.944l-.171-.377 1.315-.599.167.367-1.311.609z"/><path d="M10.356 120.25l.182.352-.182-.353z" fill="#f3783c"/><path fill="#3e4147" d="M9.895 120.932l-.184-.358 1.291-.65.179.35-1.286.658z"/><path d="M13.439 125.796c.078.128.155.257.234.384-.079-.127-.156-.256-.234-.384z" fill="#f3783c"/><path fill="#3e4147" d="M13.057 126.558l-.236-.389 1.237-.746.231.381-1.232.754z"/><ellipse cx="116.91" cy="30.199" rx="18.986" ry="41.669" transform="rotate(-57.784 116.91 30.2)" fill="#e8a91b"/><path d="M139.589 59.116a38.116 38.116 0 01-5.11-.364c-8.779-1.19-18.897-5.175-28.49-11.222-20.48-12.904-31.725-30.626-25.602-40.345 6.126-9.72 26.966-7.221 47.445 5.681 9.594 6.046 17.556 13.454 22.417 20.86 5.089 7.75 6.219 14.67 3.183 19.487-2.44 3.873-7.27 5.903-13.843 5.903zM94.153 4.294c-5.277 0-9.313 1.451-11.227 4.49-5.053 8.02 6.24 24.6 24.662 36.208 9.238 5.822 18.931 9.654 27.294 10.787 7.836 1.058 13.673-.456 16.011-4.166h.001c2.337-3.709 1.189-9.629-3.153-16.24-4.63-7.056-12.27-14.146-21.509-19.968-11.441-7.21-23.427-11.111-32.079-11.111z" fill="#3e4147"/><ellipse cx="110.685" cy="24.175" rx="12.815" ry="28.125" transform="rotate(-57.784 110.685 24.175)" fill="#fdbe2a"/><path d="M83.163 166.596a83.306 83.306 0 1144.566-153.794 83.294 83.294 0 01-25.975 151.7 83.941 83.941 0 01-18.591 2.094zm.316-163.647a80.939 80.939 0 00-17.921 2.02 80.293 80.293 0 00-25.04 146.234 80.292 80.292 0 00110.737-25.125A80.337 80.337 0 0083.479 2.95z" fill="#3e4147"/></g></g></svg>
