<?xml version="1.0" encoding="utf-8"?>
<!-- Generator: Adobe Illustrator 22.0.1, SVG Export Plug-In . SVG Version: 6.00 Build 0)  -->
<svg version="1.1" id="Layer_1" xmlns="http://www.w3.org/2000/svg" xmlns:xlink="http://www.w3.org/1999/xlink" x="0px" y="0px"
	 viewBox="0 0 588 445" style="enable-background:new 0 0 588 445;" xml:space="preserve">
<style type="text/css">
	.st0{fill:none;stroke:#A5A5A5;stroke-miterlimit:10;}
	.st1{enable-background:new    ;}
	.st2{fill:#999999;}
</style>
<rect x="212" y="7.7" class="st0" width="369" height="61.3"/>
<rect x="212" y="80.2" class="st0" width="369" height="61.3"/>
<rect x="212" y="152.7" class="st0" width="369" height="61.3"/>
<rect x="212" y="225.2" class="st0" width="369" height="61.3"/>
<rect x="212" y="297.7" class="st0" width="369" height="61.3"/>
<rect x="212" y="370.2" class="st0" width="369" height="61.3"/>
<g class="st1">
	<path d="M9.4,34.2h4.8v0.7h-4.1v3.8h3.9v0.7h-3.9v4.1h4.1V44H9.4V34.2z"/>
	<path d="M21,42l-2.9-5.9H18V44h-0.7v-9.8h0.5l3.3,6.6l3.3-6.6H25V44h-0.7v-7.9h-0.1L21.3,42H21z"/>
	<path d="M28.3,40.8v-3.4c0-2,1-3.3,3.1-3.3c2.2,0,3.1,1.3,3.1,3.3v3.4c0,2-0.9,3.3-3.1,3.3C29.2,44.1,28.3,42.8,28.3,40.8z
		 M33.8,40.7v-3.2c0-1.7-0.6-2.7-2.4-2.7c-1.7,0-2.4,1-2.4,2.7v3.2c0,1.7,0.6,2.7,2.4,2.7C33.1,43.4,33.8,42.4,33.8,40.7z"/>
	<path d="M36.8,34.2H43v0.7h-2.7V44h-0.7v-9.1h-2.7V34.2z"/>
	<path d="M45.9,34.2h0.7V44h-0.7V34.2z"/>
	<path d="M50,40.8v-3.4c0-2,1-3.3,3.1-3.3c2.2,0,3.1,1.3,3.1,3.3v3.4c0,2-0.9,3.3-3.1,3.3C50.9,44.1,50,42.8,50,40.8z M55.4,40.7
		v-3.2c0-1.7-0.6-2.7-2.4-2.7c-1.7,0-2.4,1-2.4,2.7v3.2c0,1.7,0.6,2.7,2.4,2.7C54.8,43.4,55.4,42.4,55.4,40.7z"/>
	<path d="M59.5,34.2H60l5.1,8.2h0.1v-8.2h0.7V44h-0.6l-5.1-8.2h-0.1V44h-0.7V34.2z"/>
</g>
<g class="st1">
	<path d="M13,115l-2.9-5.9H10v7.9H9.3v-9.8h0.5l3.3,6.6l3.3-6.6h0.5v9.8h-0.7v-7.9h-0.1l-2.9,5.9H13z"/>
	<path d="M20.6,107.2h4.8v0.7h-4.1v3.8h3.9v0.7h-3.9v4.1h4.1v0.7h-4.8V107.2z"/>
	<path d="M33.1,114.4c0-3-4.9-1.5-4.9-4.8c0-1.9,1.3-2.5,2.7-2.5c1.2,0,2,0.4,2.6,0.9l-0.3,0.6c-0.7-0.4-1.3-0.8-2.3-0.8
		c-1.4,0-2,0.7-2,1.8c0,2.6,5,1.2,5,4.8c0,1.5-0.7,2.7-3,2.7c-1.3,0-2.2-0.4-2.9-0.9l0.3-0.6c0.7,0.4,1.5,0.8,2.5,0.8
		C32.6,116.4,33.1,115.5,33.1,114.4z"/>
	<path d="M41.2,114.4c0-3-4.9-1.5-4.9-4.8c0-1.9,1.3-2.5,2.7-2.5c1.2,0,2,0.4,2.6,0.9l-0.3,0.6c-0.7-0.4-1.3-0.8-2.3-0.8
		c-1.4,0-2,0.7-2,1.8c0,2.6,5,1.2,5,4.8c0,1.5-0.7,2.7-3,2.7c-1.3,0-2.2-0.4-2.9-0.9l0.3-0.6c0.7,0.4,1.5,0.8,2.5,0.8
		C40.7,116.4,41.2,115.5,41.2,114.4z"/>
	<path d="M45.6,114.1l-0.9,2.9h-0.8l3.3-9.8h0.6l3.3,9.8h-0.8l-0.9-2.9H45.6z M47.5,108.3L47.5,108.3l-1.7,5.2h3.4L47.5,108.3z"/>
	<path d="M56.7,112h2.7v3.4c-0.2,0.5-0.9,1.7-3,1.7c-2.2,0-3.1-1.3-3.1-3.3v-3.4c0-2,0.9-3.3,3.1-3.3c1.7,0,2.4,1,2.8,1.8l-0.6,0.3
		c-0.6-1-1.1-1.5-2.2-1.5c-1.7,0-2.4,1-2.4,2.7v3.2c0,1.7,0.6,2.7,2.4,2.7c1.4,0,2.1-0.7,2.3-1.1v-2.7h-2.1V112z"/>
	<path d="M62.8,107.2h0.7v9.8h-0.7V107.2z"/>
	<path d="M67.2,107.2h0.5l5.1,8.2h0.1v-8.2h0.7v9.8H73l-5.1-8.2h-0.1v8.2h-0.7V107.2z"/>
	<path d="M80.2,112H83v3.4c-0.2,0.5-0.9,1.7-3,1.7c-2.2,0-3.1-1.3-3.1-3.3v-3.4c0-2,0.9-3.3,3.1-3.3c1.7,0,2.4,1,2.8,1.8l-0.6,0.3
		c-0.6-1-1.1-1.5-2.2-1.5c-1.7,0-2.4,1-2.4,2.7v3.2c0,1.7,0.6,2.7,2.4,2.7c1.4,0,2.1-0.7,2.3-1.1v-2.7h-2.1V112z"/>
</g>
<g class="st1">
	<path d="M11.4,190l-3-9.8h0.8l2.6,8.9h0.1l2.6-8.9h0.8l-3,9.8H11.4z"/>
	<path d="M18,187.1l-0.9,2.9h-0.8l3.3-9.8h0.6l3.3,9.8h-0.8l-0.9-2.9H18z M19.9,181.3L19.9,181.3l-1.7,5.2h3.4L19.9,181.3z"/>
	<path d="M26.3,180.2H27v9.1h4.1v0.7h-4.8V180.2z"/>
	<path d="M33.6,187v-6.8h0.7v6.7c0,1.6,0.6,2.5,2.3,2.5c1.8,0,2.3-1,2.3-2.5v-6.7h0.7v6.8c0,2-0.9,3.1-3.1,3.1S33.6,189,33.6,187z"
		/>
	<path d="M43.2,180.2h4.8v0.7h-4.1v3.8h3.9v0.7h-3.9v4.1h4.1v0.7h-4.8V180.2z"/>
</g>
<g class="st1">
	<path d="M9.2,260v-6.8h0.7v6.7c0,1.6,0.6,2.5,2.3,2.5c1.8,0,2.3-1,2.3-2.5v-6.7h0.7v6.8c0,2-0.9,3.1-3.1,3.1S9.2,262,9.2,260z"/>
	<path d="M23.3,260.4c0-3-4.9-1.5-4.9-4.8c0-1.9,1.3-2.5,2.7-2.5c1.2,0,2,0.4,2.6,0.9l-0.3,0.6c-0.7-0.4-1.3-0.8-2.3-0.8
		c-1.4,0-2,0.7-2,1.8c0,2.6,5,1.2,5,4.8c0,1.5-0.7,2.7-3,2.7c-1.3,0-2.2-0.4-2.9-0.9l0.3-0.6c0.7,0.4,1.5,0.8,2.5,0.8
		C22.8,262.4,23.3,261.5,23.3,260.4z"/>
	<path d="M27.7,260.1l-0.9,2.9H26l3.3-9.8h0.6l3.3,9.8h-0.8l-0.9-2.9H27.7z M29.6,254.3L29.6,254.3l-1.7,5.2h3.4L29.6,254.3z"/>
	<path d="M36,253.2h2.8c1.9,0,2.6,1,2.6,2.5c0,1.1-0.6,1.9-1.4,2.2c1,0.2,1.7,0.9,1.7,2.5c0,1.2-0.6,2.7-2.9,2.7H36V253.2z
		 M36.7,257.6h2c1.1,0,2-0.6,2-1.9c0-1.1-0.4-1.9-1.9-1.9h-2.1V257.6z M36.7,262.3h2c1.4,0,2.3-0.6,2.3-2.1c0-1.4-0.8-2.1-2.3-2.1
		h-2V262.3z"/>
	<path d="M44.8,253.2h0.7v9.8h-0.7V253.2z"/>
	<path d="M49.2,253.2h0.7v9.1H54v0.7h-4.8V253.2z"/>
	<path d="M57,253.2h0.7v9.8H57V253.2z"/>
	<path d="M60.6,253.2h6.2v0.7h-2.7v9.1h-0.7v-9.1h-2.7V253.2z"/>
	<path d="M72.2,258.4l2.6-5.2h0.8l-3.1,6v3.9h-0.7v-3.9l-3.1-6h0.8L72.2,258.4L72.2,258.4z"/>
</g>
<g class="st1">
	<path d="M9.4,336v-9.8h2.5c2.3,0,3.2,1,3.2,2.9c0,1.7-0.8,2.5-1.9,2.7l2.2,4.2h-0.8l-2.1-4.1h-2.3v4.1H9.4z M10.1,331.3h1.8
		c1.8,0,2.5-0.8,2.5-2.2c0-1.5-0.6-2.2-2.5-2.2h-1.7V331.3z"/>
	<path d="M18.3,326.2h4.8v0.7h-4.1v3.8h3.9v0.7h-3.9v4.1h4.1v0.7h-4.8V326.2z"/>
	<path d="M26.4,326.2h0.7v9.1h4.1v0.7h-4.8V326.2z"/>
	<path d="M34.1,326.2h0.7v9.8h-0.7V326.2z"/>
	<path d="M39.3,333.1l-0.9,2.9h-0.8l3.3-9.8h0.6l3.3,9.8H44l-0.9-2.9H39.3z M41.3,327.3L41.3,327.3l-1.7,5.2h3.4L41.3,327.3z"/>
	<path d="M47.6,326.2h2.8c1.9,0,2.6,1,2.6,2.5c0,1.1-0.6,1.9-1.4,2.2c1,0.2,1.7,0.9,1.7,2.5c0,1.2-0.6,2.7-2.9,2.7h-2.8V326.2z
		 M48.3,330.6h2c1.1,0,2-0.6,2-1.9c0-1.1-0.4-1.9-1.9-1.9h-2.1V330.6z M48.3,335.3h2c1.4,0,2.3-0.6,2.3-2.1c0-1.4-0.8-2.1-2.3-2.1
		h-2V335.3z"/>
	<path d="M56.4,326.2h0.7v9.8h-0.7V326.2z"/>
	<path d="M60.8,326.2h0.7v9.1h4.1v0.7h-4.8V326.2z"/>
	<path d="M68.6,326.2h0.7v9.8h-0.7V326.2z"/>
	<path d="M72.2,326.2h6.2v0.7h-2.7v9.1H75v-9.1h-2.7V326.2z"/>
	<path d="M83.9,331.4l2.6-5.2h0.8l-3.1,6v3.9h-0.7v-3.9l-3.1-6h0.8L83.9,331.4L83.9,331.4z"/>
</g>
<g class="st1">
	<path d="M9,405.8v-3.4c0-2,1-3.3,3.1-3.3c2.2,0,3.1,1.3,3.1,3.3v3.4c0,2-0.9,3.3-3.1,3.3C10,409.1,9,407.8,9,405.8z M14.5,405.7
		v-3.2c0-1.7-0.6-2.7-2.4-2.7c-1.7,0-2.4,1-2.4,2.7v3.2c0,1.7,0.6,2.7,2.4,2.7C13.9,408.4,14.5,407.4,14.5,405.7z"/>
	<path d="M18.6,399.2h2.8c1.9,0,2.6,1,2.6,2.5c0,1.1-0.6,1.9-1.4,2.2c1,0.2,1.7,0.9,1.7,2.5c0,1.2-0.6,2.7-2.9,2.7h-2.8V399.2z
		 M19.3,403.6h2c1.1,0,2-0.6,2-1.9c0-1.1-0.4-1.9-1.9-1.9h-2.1V403.6z M19.3,408.3h2c1.4,0,2.3-0.6,2.3-2.1c0-1.4-0.8-2.1-2.3-2.1
		h-2V408.3z"/>
	<path d="M26.5,409l0.1-0.6c0.2,0.1,0.5,0.1,0.7,0.1c1.5,0,1.7-1,1.7-2.4v-6.8h0.7v6.7c0,1.8-0.3,3.2-2.3,3.2
		C27.2,409.1,26.9,409.1,26.5,409z"/>
	<path d="M33.4,399.2h4.8v0.7h-4.1v3.8H38v0.7h-3.9v4.1h4.1v0.7h-4.8V399.2z"/>
	<path d="M46.4,407l0.6,0.3c-0.4,0.8-1.1,1.8-2.8,1.8c-2.2,0-3.1-1.3-3.1-3.3v-3.4c0-2,0.9-3.3,3.1-3.3c1.7,0,2.4,1,2.8,1.8
		l-0.6,0.3c-0.6-1-1.1-1.5-2.2-1.5c-1.7,0-2.4,1-2.4,2.7v3.2c0,1.7,0.7,2.7,2.4,2.7C45.3,408.4,45.9,408,46.4,407z"/>
	<path d="M49.3,399.2h6.2v0.7h-2.7v9.1H52v-9.1h-2.7V399.2z"/>
	<path d="M58.4,399.2h0.7v9.8h-0.7V399.2z"/>
	<path d="M64.9,409l-3-9.8h0.8l2.6,8.9h0.1l2.6-8.9h0.8l-3,9.8H64.9z"/>
	<path d="M71.5,399.2h4.8v0.7h-4.1v3.8h3.9v0.7h-3.9v4.1h4.1v0.7h-4.8V399.2z"/>
	<path d="M84,406.4c0-3-4.9-1.5-4.9-4.8c0-1.9,1.3-2.5,2.7-2.5c1.2,0,2,0.4,2.6,0.9l-0.3,0.6c-0.7-0.4-1.3-0.8-2.3-0.8
		c-1.4,0-2,0.7-2,1.8c0,2.6,5,1.2,5,4.8c0,1.5-0.7,2.7-3,2.7c-1.3,0-2.2-0.4-2.9-0.9l0.3-0.6c0.7,0.4,1.5,0.8,2.5,0.8
		C83.5,408.4,84,407.5,84,406.4z"/>
</g>
<g class="st1">
	<path class="st2" d="M538.3,40.4v-2.6c0-2.1,1.1-3.7,3.5-3.7c2.4,0,3.5,1.6,3.5,3.7v2.6c0,2.1-1.1,3.7-3.5,3.7
		C539.3,44.1,538.3,42.5,538.3,40.4z M540.6,37.9v2.4c0,1,0.3,1.7,1.1,1.7s1.1-0.7,1.1-1.7v-2.4c0-1-0.3-1.7-1.1-1.7
		S540.6,36.9,540.6,37.9z"/>
	<path class="st2" d="M548.8,37.7V38c0.3-0.3,0.9-0.6,1.6-0.6c2,0,3.2,1.2,3.2,3.3c0,2-1.2,3.4-3.6,3.4c-2.1,0-3.5-1.4-3.5-3.5v-2.5
		c0-2.3,1.2-4.1,3.8-4.1c1.4,0,2.3,0.4,3.1,1l-0.9,1.6c-0.7-0.4-1.2-0.6-2-0.6C549.5,36.1,548.8,36.6,548.8,37.7z M551.3,40.7
		c0-1-0.5-1.4-1.3-1.4c-0.6,0-1,0.3-1.2,0.6v0.7c0,1,0.5,1.5,1.2,1.5C550.8,42.1,551.3,41.7,551.3,40.7z"/>
</g>
<g class="st1">
	<path class="st2" d="M538.7,113.4v-2.6c0-2.1,1.1-3.7,3.5-3.7s3.5,1.6,3.5,3.7v2.6c0,2.1-1.1,3.7-3.5,3.7S538.7,115.5,538.7,113.4z
		 M541,110.9v2.4c0,1,0.3,1.7,1.1,1.7s1.1-0.7,1.1-1.7v-2.4c0-1-0.3-1.7-1.1-1.7S541,109.9,541,110.9z"/>
	<path class="st2" d="M551.4,113.8c0-0.8-0.5-1.4-1.4-1.4c-0.6,0-1.1,0.2-1.6,0.5l-1.2-0.7l0.3-5h5.6v2h-3.7l-0.1,1.5
		c0.2-0.1,0.6-0.2,1-0.2c2.3,0,3.3,1.5,3.3,3.3c0,1.7-0.9,3.3-3.6,3.3c-1.1,0-2.4-0.4-3.3-1.1l0.9-1.6c0.9,0.4,1.7,0.7,2.4,0.7
		C551.2,115.1,551.4,114.4,551.4,113.8z"/>
</g>
<g class="st1">
	<path class="st2" d="M538.2,186.4v-2.6c0-2.1,1.1-3.7,3.5-3.7s3.5,1.6,3.5,3.7v2.6c0,2.1-1.1,3.7-3.5,3.7S538.2,188.5,538.2,186.4z
		 M540.5,183.9v2.4c0,1,0.3,1.7,1.1,1.7s1.1-0.7,1.1-1.7v-2.4c0-1-0.3-1.7-1.1-1.7S540.5,182.9,540.5,183.9z"/>
	<path class="st2" d="M552.7,186.3h1.2v1.9h-1.2v1.8h-2.2v-1.8h-4.2v-1.5l2.7-6.6h2.3l-2.6,6.1h1.8V184h2.2V186.3z"/>
</g>
<g class="st1">
	<path class="st2" d="M538.9,259.4v-2.6c0-2.1,1.1-3.7,3.5-3.7s3.5,1.6,3.5,3.7v2.6c0,2.1-1.1,3.7-3.5,3.7S538.9,261.5,538.9,259.4z
		 M541.2,256.9v2.4c0,1,0.3,1.7,1.1,1.7s1.1-0.7,1.1-1.7v-2.4c0-1-0.3-1.7-1.1-1.7S541.2,255.9,541.2,256.9z"/>
	<path class="st2" d="M551.5,260c0-0.7-0.4-1.1-1.3-1.1h-1.8V257h1.7c0.7,0,1.2-0.3,1.2-1c0-0.6-0.3-1-1.1-1c-0.8,0-1.7,0.3-2.2,0.7
		l-0.9-1.6c1-0.8,2.3-1.1,3.3-1.1c2.1,0,3.2,1.1,3.2,2.8c0,0.6-0.2,1.4-0.8,1.9c0.7,0.5,1,1.2,1,2.3c0,1.6-0.9,3.1-3.6,3.1
		c-1.3,0-2.5-0.6-3.3-1.1l0.9-1.6c0.9,0.5,1.7,0.7,2.4,0.7C551.3,261.1,551.5,260.5,551.5,260z"/>
</g>
<g class="st1">
	<path class="st2" d="M538.9,332.4v-2.6c0-2.1,1.1-3.7,3.5-3.7s3.5,1.6,3.5,3.7v2.6c0,2.1-1.1,3.7-3.5,3.7S538.9,334.5,538.9,332.4z
		 M541.2,329.9v2.4c0,1,0.3,1.7,1.1,1.7s1.1-0.7,1.1-1.7v-2.4c0-1-0.3-1.7-1.1-1.7S541.2,328.9,541.2,329.9z"/>
	<path class="st2" d="M553.6,328.9c0,2.6-4.1,3.8-4.1,5.1h4.3v2H547v-1.5c0-2.6,4.2-4.1,4.2-5.6c0-0.6-0.5-0.9-1.2-0.9
		c-0.7,0-1.5,0.3-2.2,0.8l-1-1.6c0.9-0.7,2.1-1.1,3.3-1.1C552.3,326.1,553.6,327.1,553.6,328.9z"/>
</g>
<g class="st1">
	<path class="st2" d="M539.3,405.4v-2.6c0-2.1,1.1-3.7,3.5-3.7c2.4,0,3.5,1.6,3.5,3.7v2.6c0,2.1-1.1,3.7-3.5,3.7
		C540.3,409.1,539.3,407.5,539.3,405.4z M541.6,402.9v2.4c0,1,0.3,1.7,1.1,1.7s1.1-0.7,1.1-1.7v-2.4c0-1-0.3-1.7-1.1-1.7
		S541.6,401.9,541.6,402.9z"/>
	<path class="st2" d="M550.6,399.2h1.6v7.9h1.7v1.9h-6.2v-1.9h2.2v-5.5l-2.1,0.8c0,0-0.1-0.1-0.7-1.8L550.6,399.2z"/>
</g>
</svg>
